<svg width="129" height="24" viewBox="0 0 129 24" fill="none" xmlns="http://www.w3.org/2000/svg">
<path d="M22.447 9.179C22.318 8.801 21.977 8.534 21.579 8.503L15.878 8.05L13.411 2.589C13.25 2.23 12.893 2 12.5 2C12.107 2 11.75 2.23 11.589 2.588L9.12198 8.05L3.42098 8.503C3.02998 8.534 2.69298 8.791 2.55998 9.16C2.42698 9.529 2.52098 9.942 2.80198 10.216L7.01498 14.323L5.52498 20.775C5.43298 21.174 5.59398 21.589 5.93098 21.822C6.10298 21.94 6.30098 22 6.49998 22C6.69298 22 6.88698 21.944 7.05498 21.832L12.5 18.202L17.945 21.832C18.293 22.064 18.75 22.055 19.09 21.808C19.428 21.561 19.577 21.128 19.462 20.726L17.633 14.326L22.169 10.244C22.466 9.976 22.575 9.558 22.447 9.179Z" fill="#FF5029"/>
<path d="M48.447 9.179C48.318 8.801 47.977 8.534 47.579 8.503L41.878 8.05L39.411 2.589C39.25 2.23 38.893 2 38.5 2C38.107 2 37.75 2.23 37.589 2.588L35.122 8.05L29.421 8.503C29.03 8.534 28.693 8.791 28.56 9.16C28.427 9.529 28.521 9.942 28.802 10.216L33.015 14.323L31.525 20.775C31.433 21.174 31.594 21.589 31.931 21.822C32.103 21.94 32.301 22 32.5 22C32.693 22 32.887 21.944 33.055 21.832L38.5 18.202L43.945 21.832C44.293 22.064 44.75 22.055 45.09 21.808C45.428 21.561 45.577 21.128 45.462 20.726L43.633 14.326L48.169 10.244C48.466 9.976 48.575 9.558 48.447 9.179Z" fill="#FF5029"/>
<path d="M74.447 9.179C74.318 8.801 73.977 8.534 73.579 8.503L67.878 8.05L65.411 2.589C65.25 2.23 64.893 2 64.5 2C64.107 2 63.75 2.23 63.589 2.588L61.122 8.05L55.421 8.503C55.03 8.534 54.693 8.791 54.56 9.16C54.427 9.529 54.521 9.942 54.802 10.216L59.015 14.323L57.525 20.775C57.433 21.174 57.594 21.589 57.931 21.822C58.103 21.94 58.301 22 58.5 22C58.693 22 58.887 21.944 59.055 21.832L64.5 18.202L69.945 21.832C70.293 22.064 70.75 22.055 71.09 21.808C71.428 21.561 71.577 21.128 71.462 20.726L69.633 14.326L74.169 10.244C74.466 9.976 74.575 9.558 74.447 9.179Z" fill="#FF5029"/>
<path d="M100.447 9.179C100.318 8.801 99.977 8.534 99.579 8.503L93.878 8.05L91.411 2.589C91.25 2.23 90.893 2 90.5 2C90.107 2 89.75 2.23 89.589 2.588L87.122 8.05L81.421 8.503C81.03 8.534 80.693 8.791 80.56 9.16C80.427 9.529 80.521 9.942 80.802 10.216L85.015 14.323L83.525 20.775C83.433 21.174 83.594 21.589 83.931 21.822C84.103 21.94 84.301 22 84.5 22C84.693 22 84.887 21.944 85.055 21.832L90.5 18.202L95.945 21.832C96.293 22.064 96.75 22.055 97.09 21.808C97.428 21.561 97.577 21.128 97.462 20.726L95.633 14.326L100.169 10.244C100.466 9.976 100.575 9.558 100.447 9.179Z" fill="#FF5029"/>
<path d="M126.447 9.179C126.318 8.801 125.977 8.534 125.579 8.503L119.878 8.05L117.411 2.589C117.25 2.23 116.893 2 116.5 2C116.107 2 115.75 2.23 115.589 2.588L113.122 8.05L107.421 8.503C107.03 8.534 106.693 8.791 106.56 9.16C106.427 9.529 106.521 9.942 106.802 10.216L111.015 14.323L109.525 20.775C109.433 21.174 109.594 21.589 109.931 21.822C110.103 21.94 110.301 22 110.5 22C110.693 22 110.887 21.944 111.055 21.832L116.5 18.202L121.945 21.832C122.293 22.064 122.75 22.055 123.09 21.808C123.428 21.561 123.577 21.128 123.462 20.726L121.633 14.326L126.169 10.244C126.466 9.976 126.575 9.558 126.447 9.179Z" fill="#FF5029"/>
</svg>
