<svg width="150" height="34" viewBox="0 0 150 34" fill="none" xmlns="http://www.w3.org/2000/svg">
<g filter="url(#filter0_d_8_228)">
<path d="M8.468 16.08V12.048H15.272V8.212H8.468V4.32H16V0.399999H4.24V20H16.308V16.08H8.468ZM31.5352 4.88L30.8632 6.392C29.5472 5.188 27.8112 4.46 25.8512 4.46C21.6232 4.46 18.3192 7.82 18.3192 12.048C18.3192 16.304 21.6232 19.636 25.8512 19.636C27.4752 19.636 28.9592 19.132 30.1632 18.292V18.852C30.1632 21.064 28.4552 22.408 26.3832 22.408C24.8712 22.408 23.2752 21.708 22.7992 20.336H18.7392C19.4392 23.78 22.3512 25.88 26.4392 25.88C31.2272 25.88 34.1672 22.996 34.1672 18.264V4.908L31.5352 4.88ZM26.3272 15.968C24.0872 15.968 22.4632 14.316 22.4632 12.076C22.4632 9.808 24.0872 8.156 26.3272 8.156C28.5672 8.156 30.1912 9.808 30.1912 12.076C30.1912 14.316 28.5672 15.968 26.3272 15.968ZM48.5563 4.88L44.7763 14.204L40.7443 4.88H36.2923L42.7043 18.852L42.6483 18.964C41.7243 21.26 41.2203 21.792 39.2323 21.792H37.8323V25.46H39.5123C42.9003 25.46 44.4963 23.92 46.3163 19.804L52.8963 4.88H48.5563ZM63.1881 4.46C61.3121 4.46 59.6321 5.132 58.3441 6.28L57.6441 4.88H54.9561V25.46H59.0441V19.188C60.1921 20 61.6201 20.476 63.1881 20.476C67.7521 20.476 71.1121 17.032 71.1121 12.44C71.1121 7.876 67.7521 4.46 63.1881 4.46ZM62.8521 16.584C60.4721 16.584 58.7361 14.82 58.7361 12.44C58.7361 10.088 60.4721 8.296 62.8521 8.296C65.2321 8.296 66.9681 10.088 66.9681 12.44C66.9681 14.82 65.2321 16.584 62.8521 16.584ZM81.2153 16.36C79.7033 16.36 78.8633 15.52 78.8633 14.064V8.184H82.9793V4.88H78.8073V0.96H78.0233L72.0593 7.288V8.184H74.7753V14.624C74.7753 17.956 76.8193 20 80.1513 20H83.0633V16.36H81.2153ZM99.6305 0.399999H84.4825V4.348H89.9425V20H94.1705V4.348H99.6305V0.399999ZM107.296 20.448C111.972 20.448 115.472 17.004 115.472 12.44C115.472 7.876 111.972 4.46 107.296 4.46C102.62 4.46 99.12 7.876 99.12 12.44C99.12 17.004 102.62 20.448 107.296 20.448ZM107.296 16.584C104.944 16.584 103.264 14.904 103.264 12.44C103.264 10.004 104.944 8.296 107.296 8.296C109.648 8.296 111.328 10.004 111.328 12.44C111.328 14.904 109.648 16.584 107.296 16.584ZM125.309 20.448C129.593 20.448 132.421 17.704 132.421 13.616V4.88H128.333V13.168C128.333 15.296 127.213 16.584 125.309 16.584C123.433 16.584 122.285 15.324 122.285 13.168V4.88H118.197V13.616C118.197 17.704 121.053 20.448 125.309 20.448ZM143.868 4.796C141.908 4.796 140.564 5.412 139.472 6.756L138.744 4.88H136.14V20H140.228V12.16C140.228 9.696 141.124 8.66 143.42 8.66H145.212V4.796H143.868Z" fill="#0B0614"/>
</g>
<defs>
<filter id="filter0_d_8_228" x="0.23999" y="0.399994" width="148.972" height="33.48" filterUnits="userSpaceOnUse" color-interpolation-filters="sRGB">
<feFlood flood-opacity="0" result="BackgroundImageFix"/>
<feColorMatrix in="SourceAlpha" type="matrix" values="0 0 0 0 0 0 0 0 0 0 0 0 0 0 0 0 0 0 127 0" result="hardAlpha"/>
<feOffset dy="4"/>
<feGaussianBlur stdDeviation="2"/>
<feComposite in2="hardAlpha" operator="out"/>
<feColorMatrix type="matrix" values="0 0 0 0 0 0 0 0 0 0 0 0 0 0 0 0 0 0 0.25 0"/>
<feBlend mode="normal" in2="BackgroundImageFix" result="effect1_dropShadow_8_228"/>
<feBlend mode="normal" in="SourceGraphic" in2="effect1_dropShadow_8_228" result="shape"/>
</filter>
</defs>
</svg>
